<svg xmlns="http://www.w3.org/2000/svg" viewBox="0 0 920 520" font-family="system-ui, -apple-system, 'Segoe UI', sans-serif" font-size="13">
  <defs>
    <marker id="arrow" markerWidth="10" markerHeight="10" refX="9" refY="3" orient="auto">
      <path d="M0,0 L0,6 L9,3 z" fill="#1a1a2e"/>
    </marker>
    <linearGradient id="gradClient" x1="0%" y1="0%" x2="0%" y2="100%">
      <stop offset="0%" style="stop-color:#e8f4fc"/>
      <stop offset="100%" style="stop-color:#d4e8f7"/>
    </linearGradient>
    <linearGradient id="gradServer" x1="0%" y1="0%" x2="0%" y2="100%">
      <stop offset="0%" style="stop-color:#f0f7ed"/>
      <stop offset="100%" style="stop-color:#dcebdd"/>
    </linearGradient>
  </defs>
  <rect width="920" height="520" fill="#f8f9fb"/>
  <text x="460" y="36" text-anchor="middle" font-size="20" font-weight="700" fill="#16213e">PD Crypto Suite  0@E8B5:BC@0 @072Q@BK20=8O</text>
  <text x="460" y="58" text-anchor="middle" font-size="12" fill="#555">;85=B (Qt 6) ” TCP/JSON ” !5@25@ (Qt 6) ” SQLite</text>

  <!-- Client host -->
  <rect x="40" y="88" width="380" height="380" rx="12" fill="none" stroke="#4a90d9" stroke-width="2" stroke-dasharray="8 4"/>
  <text x="230" y="112" text-anchor="middle" font-weight="700" fill="#2c5282">%>AB :;85=B0</text>

  <rect x="70" y="135" width="320" height="72" rx="8" fill="url(#gradClient)" stroke="#4a90d9" stroke-width="1.5"/>
  <text x="230" y="158" text-anchor="middle" font-weight="600" fill="#1a365d">pd_client</text>
  <text x="230" y="178" text-anchor="middle" font-size="11" fill="#4a5568">Qt Widgets: MainWindow, LoginDialog, 2:;04:8</text>
  <text x="230" y="196" text-anchor="middle" font-size="11" fill="#4a5568">!B530=>3@0D8O LSB  ;>:0;L=> 2 ?@>F5AA5 :;85=B0</text>

  <rect x="70" y="228" width="320" height="88" rx="8" fill="url(#gradClient)" stroke="#3182ce" stroke-width="1.5"/>
  <text x="230" y="252" text-anchor="middle" font-weight="600" fill="#1a365d">ClientCore (singleton)</text>
  <text x="230" y="272" text-anchor="middle" font-size="11" fill="#4a5568">QTcpSocket, A8=E@>==K5 JSON-70?@>AK</text>
  <text x="230" y="290" text-anchor="middle" font-size="11" fill="#4a5568">LOGIN, REGISTER, VIGENERE, SHA384, CHORD&</text>

  <rect x="70" y="338" width="320" height="110" rx="8" fill="#edf2f7" stroke="#a0aec0" stroke-width="1"/>
  <text x="230" y="362" text-anchor="middle" font-weight="600" fill="#2d3748">>4C;8 core (;8=:>2:0)</text>
  <text x="230" y="382" text-anchor="middle" font-size="11" fill="#4a5568">1I0O AB0B8G5A:0O 181;8>B5:0 pd_core</text>
  <text x="230" y="400" text-anchor="middle" font-size="11" fill="#4a5568">Vigenčre, SHA-384, chord, stego API</text>

  <!-- Server host -->
  <rect x="500" y="88" width="380" height="380" rx="12" fill="none" stroke="#38a169" stroke-width="2" stroke-dasharray="8 4"/>
  <text x="690" y="112" text-anchor="middle" font-weight="700" fill="#276749">%>AB A5@25@0 / Docker</text>

  <rect x="530" y="135" width="320" height="52" rx="8" fill="url(#gradServer)" stroke="#38a169" stroke-width="1.5"/>
  <text x="690" y="158" text-anchor="middle" font-weight="600" fill="#22543d">pd_server</text>
  <text x="690" y="176" text-anchor="middle" font-size="11" fill="#4a5568">QCoreApplication, 0@3C<5=BK --port, --db</text>

  <rect x="530" y="198" width="320" height="52" rx="8" fill="#f0fff4" stroke="#2f855a" stroke-width="1.5"/>
  <text x="690" y="222" text-anchor="middle" font-weight="600" fill="#22543d">Server : QTcpServer</text>
  <text x="690" y="240" text-anchor="middle" font-size="11" fill="#4a5568">incomingConnection ’ =>2K9 ClientHandler =0 A>548=5=85</text>

  <rect x="530" y="263" width="320" height="68" rx="8" fill="#f0fff4" stroke="#48bb78" stroke-width="1.5"/>
  <text x="690" y="287" text-anchor="middle" font-weight="600" fill="#22543d">ClientHandler</text>
  <text x="690" y="307" text-anchor="middle" font-size="11" fill="#4a5568"> 071>@ JSON-AB@>:, dispatch :><0=4</text>
  <text x="690" y="323" text-anchor="middle" font-size="11" fill="#4a5568">5A:>;L:> :;85=B>2  =5A:>;L:> M:75<?;O@>2</text>

  <rect x="530" y="344" width="152" height="100" rx="8" fill="#faf5ff" stroke="#805ad5" stroke-width="1.5"/>
  <text x="606" y="372" text-anchor="middle" font-weight="600" fill="#553c9a">Database</text>
  <text x="606" y="392" text-anchor="middle" font-size="11" fill="#553c9a">singleton</text>
  <text x="606" y="412" text-anchor="middle" font-size="10" fill="#6b46c1">users, logs</text>

  <rect x="698" y="344" width="152" height="100" rx="8" fill="#fffaf0" stroke="#dd6b20" stroke-width="1.5"/>
  <text x="774" y="378" text-anchor="middle" font-weight="600" fill="#9c4221">SQLite</text>
  <text x="774" y="402" text-anchor="middle" font-size="11" fill="#744210">pd_server.db</text>

  <!-- Links internal server -->
  <line x1="690" y1="187" x2="690" y2="198" stroke="#2d3748" stroke-width="1.5" marker-end="url(#arrow)"/>
  <line x1="690" y1="250" x2="690" y2="263" stroke="#2d3748" stroke-width="1.5" marker-end="url(#arrow)"/>
  <line x1="690" y1="331" x2="606" y2="344" stroke="#2d3748" stroke-width="1.5" marker-end="url(#arrow)"/>
  <line x1="682" y1="394" x2="698" y2="394" stroke="#2d3748" stroke-width="1.5" marker-end="url(#arrow)"/>

  <!-- TCP arrow -->
  <line x1="390" y1="272" x2="530" y2="222" stroke="#1a1a2e" stroke-width="2.5" marker-end="url(#arrow)"/>
  <rect x="408" y="228" width="118" height="36" rx="6" fill="#fff" stroke="#1a1a2e" stroke-width="1"/>
  <text x="467" y="246" text-anchor="middle" font-size="11" font-weight="600" fill="#1a1a2e">TCP · JSON</text>
  <text x="467" y="260" text-anchor="middle" font-size="10" fill="#4a5568">?>@B 5555</text>

  <text x="460" y="505" text-anchor="middle" font-size="11" fill="#718096">803@0<<0 A>>B25BAB2C5B :><?>=5=B0< 2 docs/uml/architecture.puml</text>
</svg>
